<?xml version="1.0" encoding="utf-8"?>
<!-- Generator: Adobe Illustrator 18.1.1, SVG Export Plug-In . SVG Version: 6.00 Build 0)  -->
<!DOCTYPE svg PUBLIC "-//W3C//DTD SVG 1.1//EN" "http://www.w3.org/Graphics/SVG/1.1/DTD/svg11.dtd">
<svg version="1.1" id="Layer_1" xmlns="http://www.w3.org/2000/svg" xmlns:xlink="http://www.w3.org/1999/xlink" x="0px" y="0px"
	 viewBox="262.8 522.9 342.1 227.6" enable-background="new 262.8 522.9 342.1 227.6" xml:space="preserve">
<g>
	<path fill="#FFFFFF" d="M282.3,604.2c0,0,68.9,0,72.2,0c0-2,0-5.2,0-7.2c-3.3,0-72.2,0-72.2,0v-67c0,0,75.4,0,78.7,0
		c0-2,0-5.2,0-7.2c-3.3,0-95,0-98.2,0c0,3.3,0,166.5,0,169.8c3.3,0,96.3,0,99.5,0c0-2,0-5.9,0-7.8c-3.3,0-80,0-80,0V604.2z"/>
	<path fill="#FFFFFF" d="M526.8,629.6c19.5-29.3,61.8-91.7,72.2-106.7h-8.5c-9.1,14.3-50.1,77.4-67,102.1
		c-16.9-26-51.4-81.3-64.4-102.1h-10.4c19.5,29.9,52,80,69.6,108.6c-5.2,7.8-19.5,29.9-34.5,53.3c-11.7,0-77.4,0-77.4,0
		s0-158.7,0-162c-2.6,0-16.9,0-19.5,0c0,3.3,0,166.5,0,169.8c2.6,0,69.6,0,91.7,0c-15,22.8-29.9,46.2-37.7,57.9h9.1
		c18.2-31.2,50.7-82.6,72.2-115.1c20.8,32.5,53.3,83.9,72.2,115.1h10.4C589.3,727.8,543.7,656.3,526.8,629.6z"/>
</g>
</svg>
