<?xml version="1.0" encoding="utf-8"?>
<!-- Generator: Adobe Illustrator 18.1.1, SVG Export Plug-In . SVG Version: 6.00 Build 0)  -->
<svg version="1.1" id="Layer_1" xmlns="http://www.w3.org/2000/svg" xmlns:xlink="http://www.w3.org/1999/xlink" x="0px" y="0px"
	 viewBox="0 0 294 29.8" enable-background="new 0 0 294 29.8" xml:space="preserve">
<g>
	<polygon fill="#FFFFFF" points="67.6,7.8 72.1,7.8 72.1,20.8 73.9,20.8 73.9,7.8 78.3,7.8 78.3,7 67.6,7 	"/>
	<rect x="80.2" y="4.6" fill="#FFFFFF" width="8.1" height="0.8"/>
	<polygon fill="#FFFFFF" points="82.1,13.7 87.8,13.7 87.8,12.9 82.1,12.9 82.1,7.8 88.3,7.8 88.3,7 80.2,7 80.2,20.8 88.4,20.8 
		88.4,19.9 82.1,19.9 	"/>
	<polygon fill="#FFFFFF" points="92.8,13.7 98.6,13.7 98.6,12.9 92.8,12.9 92.8,7.8 99.1,7.8 99.1,7 91,7 91,20.8 99.1,20.8 
		99.1,19.9 92.8,19.9 	"/>
	<polygon fill="#FFFFFF" points="49.8,13.7 55.5,13.7 55.5,12.9 49.8,12.9 49.8,7.8 56,7.8 56,7 48,7 48,20.8 56.1,20.8 56.1,19.9 
		49.8,19.9 	"/>
	<polygon fill="#FFFFFF" points="160.2,13.7 165.9,13.7 165.9,12.9 160.2,12.9 160.2,7.8 166.4,7.8 166.4,7 158.4,7 158.4,20.8 
		166.5,20.8 166.5,19.9 160.2,19.9 	"/>
	<polygon fill="#FFFFFF" points="109.1,7 107.3,7 107.3,20.8 115.4,20.8 115.4,19.9 109.1,19.9 	"/>
	<path fill="#FFFFFF" d="M59.5,9.9c0-1.3,1.2-2.5,3.1-2.5c1.9,0,3.2,1,3.7,1.4V7.6c-0.7-0.4-2.1-0.9-3.8-0.9c-2.4,0-4.6,1.4-4.6,3.7
		c0,4.9,7.8,3.2,7.8,6.9c0,1.5-1.4,3-3.8,3c-1.8,0-3.3-0.9-4-1.4l0,1.2c1.2,0.6,2.6,1,4,1c2.9,0,5.4-1.6,5.4-4.4
		C67.3,12,59.5,13.6,59.5,9.9z"/>
	<path fill="#FFFFFF" d="M123.3,6.9h-1.4l-5.8,13.9h1.2l2.1-5.2h5.6l2.1,5.2h2.1l-3.6-8.5L123.3,6.9z M119.8,14.7
		c0.3-0.7,1.5-3.7,2.4-6.1c0.9,2.3,1.9,4.6,2.5,6.1H119.8z"/>
	<path fill="#FFFFFF" d="M140.1,16.3c0,2.5-1.7,4-4.2,4c-2.2,0-3.9-1.2-3.9-3.7V7h-1.8v9.2c0,3.1,1.8,4.9,5.5,4.9
		c4,0,5.5-2.3,5.5-4.8V7h-1.1V16.3z"/>
	<path fill="#FFFFFF" d="M178.9,10.5c0-2.5-2.2-3.6-4.8-3.5h-5v13.8h1.8v-6.6h2.7l4.2,6.6h2l-4.5-6.8
		C176,13.9,178.9,13.1,178.9,10.5z M173.1,13.4H171V7.8h3c2,0,3.1,1,3.2,2.8C177.1,12.6,175.4,13.4,173.1,13.4z"/>
	<path fill="#FFFFFF" d="M149.2,7h-5.3v13.8h4.6c4.1,0.1,7.6-1.9,7.6-7.1C156.1,9.4,153.6,6.9,149.2,7z M148.2,20h-2.4V7.8h3.2
		c3.4,0,5.3,2.1,5.3,6.2C154.3,18.4,151.9,20,148.2,20z"/>
	<path fill="#FFFFFF" d="M11.1,7.3c-2.1,0-4.3,0-5.2-0.1c0,0.3,0,0.6,0,0.9C7,8,9.2,7.9,10.5,7.9c0,0.3,0.1,4,0.1,6.5
		c0,2.5-0.1,5.3-0.1,6.4c0.2,0,0.4,0,0.6,0c0.2,0,0.4,0,0.6,0c-0.1-1.2-0.1-3.9-0.1-6.4c0-2.4,0.1-6.1,0.1-6.5c1.4,0,3.4,0,4.6,0.2
		c-0.1-0.3-0.1-0.6,0-0.9C15.3,7.2,13.1,7.3,11.1,7.3z"/>
	<path fill="#FFFFFF" d="M28.9,7.2c-0.2,0-0.4,0-0.6-0.1c0.1,1.4,0.1,5.9,0.1,5.9s-2.7,0.1-4.3,0.1c-1.6,0-4.2-0.1-4.2-0.1
		s0-4.5,0.1-5.9c-0.2,0-0.4,0.1-0.6,0.1c-0.2,0-0.4,0-0.6-0.1c0.1,1.6,0.1,3.8,0.1,6.3c0,2.9-0.1,5.7-0.1,7.4c0.2,0,0.4,0,0.6,0
		c0.2,0,0.4,0,0.6,0c-0.1-1.6-0.1-7-0.1-7s2.7-0.1,4.3-0.1c1.6,0,4.3,0.1,4.3,0.1s-0.1,5.6-0.1,7c0.2,0,0.4,0,0.6,0
		c0.2,0,0.4,0,0.6,0c-0.1-1.4-0.1-4.5-0.1-7.4c0-2.4,0-4.9,0.1-6.3C29.3,7.2,29.1,7.2,28.9,7.2z"/>
	<path fill="#FFFFFF" d="M37.4,20.1c-1.2,0-2.2,0-2.7,0c-0.1-1.5,0-4.5,0-6.2h2.2c1.2,0,2.2,0,2.7,0.1c0-0.2-0.1-0.3-0.1-0.4
		c0-0.2,0-0.3,0.1-0.4c-0.6,0-1.6,0.1-2.8,0.1h-2.1c0-1.4,0-4.3,0.1-5.4c0.3,0,1.2,0,2.1,0C38,7.9,39.3,7.9,40,8c0-0.1,0-0.3,0-0.4
		c0-0.2,0-0.3,0-0.4c-0.5,0-1.9,0.1-3.2,0.1c-1.4,0-3.2-0.1-3.2-0.1c0,1.3,0.1,3.8,0.1,6.3c0,2.9,0,5.6-0.1,7.3c0.7,0,2,0,3.3,0
		c1.1,0,3.3,0,3.3,0c0-0.2-0.1-0.3-0.1-0.4c0-0.2,0-0.3,0.1-0.4C39.5,20,38,20,37.4,20.1z"/>
	<path fill="#FFFFFF" d="M190.2,20.1c-1.2,0-2.2,0-2.7,0c-0.1-1.5,0-4.5,0-6.2h2.2c1.2,0,2.2,0,2.7,0.1c0-0.2-0.1-0.3-0.1-0.4
		c0-0.2,0-0.3,0.1-0.4c-0.6,0-1.6,0.1-2.8,0.1h-2.1c0-1.4,0-4.3,0.1-5.4c0.3,0,1.2,0,2.1,0c1.1,0,2.4,0.1,3.1,0.2c0-0.1,0-0.3,0-0.4
		c0-0.2,0-0.3,0-0.4c-0.5,0-1.9,0.1-3.2,0.1c-1.4,0-3.2-0.1-3.2-0.1c0,1.3,0.1,3.8,0.1,6.3c0,2.9,0,5.6-0.1,7.3c0.7,0,2,0,3.3,0
		c1.1,0,3.3,0,3.3,0c0-0.2-0.1-0.3-0.1-0.4c0-0.2,0-0.3,0.1-0.4C192.3,20,190.8,20,190.2,20.1z"/>
	<path fill="#FFFFFF" d="M204.8,7.1c-0.2,0-0.4,0.1-0.5,0.1c-0.2,0-0.3,0-0.5-0.1c-0.8,1.4-2.7,4.3-3.7,5.7c-0.7-1-2.9-4.7-3.4-5.7
		c-0.3,0-0.5,0.1-0.7,0.1c-0.3,0-0.5,0-0.8-0.1c1.1,1.7,3.2,5,4.2,6.7c-0.7,1.1-3.6,5.5-4.6,7c0.2,0,0.4,0,0.6,0c0.2,0,0.4,0,0.5,0
		c1.1-2,2.6-4.5,3.9-6.4c1.2,2,2.7,4.4,3.8,6.4c0.2,0,0.4,0,0.7,0c0.3,0,0.5,0,0.8,0c-1-1.6-4-6.3-4.6-7.4
		C201.5,11.8,204,8.2,204.8,7.1z"/>
	<path fill="#FFFFFF" d="M211.1,7.2c-0.5,0-1.8,0-2.3,0c-0.3,0-0.8,0-1,0c0.1,1.8,0.1,4.2,0.1,6.8c0,2.6-0.1,5.4-0.1,6.8
		c0.2,0,0.4,0,0.6,0c0.2,0,0.4,0,0.6,0c0-1.4-0.1-3-0.1-4.7v-1.6c0.4,0,1,0.1,1.6,0c3.1-0.1,5.2-1.3,5.2-4
		C215.8,8.1,214,7.1,211.1,7.2z M210.4,14c-0.5,0-1,0-1.4-0.1v-2.1c0-1.4,0-3.7,0-4c0.5,0,1.5-0.1,2.1,0c2.2,0,3.4,1.1,3.4,2.9
		C214.6,12.7,213.3,13.9,210.4,14z"/>
	<path fill="#FFFFFF" d="M222.2,20.1c-1.2,0-2.2,0-2.7,0c-0.1-1.5,0-4.5,0-6.2h2.2c1.2,0,2.2,0,2.7,0.1c0-0.2-0.1-0.3-0.1-0.4
		c0-0.2,0-0.3,0.1-0.4c-0.6,0-1.6,0.1-2.8,0.1h-2.1c0-1.4,0-4.3,0.1-5.4c0.3,0,1.2,0,2.1,0c1.1,0,2.4,0.1,3.1,0.2c0-0.1,0-0.3,0-0.4
		c0-0.2,0-0.3,0-0.4c-0.5,0-1.9,0.1-3.2,0.1c-1.4,0-3.3-0.1-3.3-0.1c0,1.3,0.1,3.8,0.1,6.3c0,2.9,0,5.6-0.1,7.3c0.7,0,2,0,3.3,0
		c1.1,0,3.3,0,3.3,0c0-0.2-0.1-0.3-0.1-0.4c0-0.2,0-0.3,0.1-0.4C224.3,20,222.8,20,222.2,20.1z"/>
	<path fill="#FFFFFF" d="M236.1,10.3c0-2.1-1.6-3.2-4.3-3.2c-1.4,0-2.7,0.1-3.6,0c0,1.2,0.1,3.9,0.1,6.5c0,2-0.1,5.6-0.1,7.1
		c0.2,0,0.4,0,0.6,0c0.2,0,0.4,0,0.6,0c0-1.5-0.1-5-0.1-6.7h1.2c1.3,1.6,4.1,5.1,5.3,6.7c0.2,0,0.5-0.1,0.8-0.1c0.3,0,0.5,0,0.8,0.1
		c-1.5-1.8-4.2-5.1-5.5-6.8C234,13.7,236.1,12.6,236.1,10.3z M229.3,13.5c0-0.5,0.1-5.4,0.1-5.7c0.5,0,1.6,0,2.1,0
		c2.2,0,3.4,1,3.4,2.7c0,2.2-2.2,3.1-4.2,3.1C230.3,13.5,229.6,13.5,229.3,13.5z"/>
	<path fill="#FFFFFF" d="M240.4,7.2c-0.2,0-0.4,0-0.6-0.1c0.1,1.6,0.1,3.8,0.1,6.3c0,2.9-0.1,5.7-0.1,7.4c0.2,0,0.4-0.1,0.6-0.1
		c0.2,0,0.4,0,0.6,0.1c0-1.6-0.1-4.5-0.1-7.4c0-2.5,0-4.9,0.1-6.3C240.8,7.2,240.6,7.2,240.4,7.2z"/>
	<path fill="#FFFFFF" d="M248.9,20.1c-1.2,0-2.2,0-2.7,0c-0.1-1.5,0-4.5,0-6.2h2.2c1.2,0,2.2,0,2.7,0.1c0-0.2-0.1-0.3-0.1-0.4
		c0-0.2,0-0.3,0.1-0.4c-0.6,0-1.6,0.1-2.8,0.1h-2.1c0-1.4,0-4.3,0.1-5.4c0.3,0,1.2,0,2.1,0c1.1,0,2.4,0.1,3.1,0.2c0-0.1,0-0.3,0-0.4
		c0-0.2,0-0.3,0-0.4c-0.5,0-1.9,0.1-3.2,0.1c-1.4,0-3.2-0.1-3.2-0.1c0,1.3,0.1,3.8,0.1,6.3c0,2.9,0,5.6-0.1,7.3c0.7,0,2,0,3.3,0
		c1.1,0,3.3,0,3.3,0c0-0.2-0.1-0.3-0.1-0.4c0-0.2,0-0.3,0.1-0.4C251,20,249.5,20,248.9,20.1z"/>
	<path fill="#FFFFFF" d="M266.1,7.1c-0.1,0-0.3,0-0.4,0c-0.2,0-0.3,0-0.5,0c0.1,1.2,0.1,3.7,0.1,5.7c0,2.1,0,5,0,5.9
		c-0.8-0.9-2.9-3.5-4.6-5.4c-2-2.4-4.6-5.4-5.3-6.3H255c0,0.4,0,4.1,0,6.8c0,2.7-0.1,6.1-0.1,7c0.2,0,0.3,0,0.5,0c0.1,0,0.3,0,0.5,0
		c-0.1-1.3-0.1-4.5-0.1-6.3c0-1.9,0-4.4,0-5.5c0.8,0.9,2.7,3.2,4.3,5.2c2.2,2.6,4.6,5.6,5.5,6.8h0.4c0-1.6,0-4.4,0-7.7
		C266,11.2,266,8.3,266.1,7.1z"/>
	<path fill="#FFFFFF" d="M276.4,7.4c1.8,0,3.3,0.8,4,1.4l0.1,0c0.1-0.4,0.1-0.7,0.3-1c-1.3-0.6-2.7-1-4.4-1c-4.5,0-7.3,3.1-7.3,7.1
		c0,4.3,2.6,7.1,7,7.1c1.5,0,3.1-0.3,4.3-1.1l0.1-0.9c0,0-0.1,0-0.2,0c-1,0.8-2.6,1.4-4.2,1.4c-3.8,0-5.9-2.8-5.9-6.5
		C270.5,10.5,272.6,7.4,276.4,7.4z"/>
	<path fill="#FFFFFF" d="M290,19.9c-0.6,0.1-2.1,0.1-2.7,0.2c-1.2,0-2.2,0-2.7,0c-0.1-1.5,0-4.5,0-6.2h2.2c1.2,0,2.2,0,2.7,0.1
		c0-0.2-0.1-0.3-0.1-0.4c0-0.2,0-0.3,0.1-0.4c-0.6,0-1.6,0.1-2.8,0.1h-2.1c0-1.4,0-4.3,0.1-5.4c0.3,0,1.2,0,2.1,0
		c1.1,0,2.4,0.1,3.1,0.2c0-0.1,0-0.3,0-0.4c0-0.2,0-0.3,0-0.4c-0.5,0-1.9,0.1-3.2,0.1c-1.4,0-3.3-0.1-3.3-0.1c0,1.3,0.1,3.8,0.1,6.3
		c0,2.9,0,5.6-0.1,7.3c0.7,0,2,0,3.3,0c1.1,0,3.3,0,3.3,0c0-0.2-0.1-0.3-0.1-0.4C289.9,20.2,290,20,290,19.9z"/>
</g>
</svg>
